<svg xmlns="http://www.w3.org/2000/svg" viewBox="0 0 709.54 251.95">
  <title>logo</title>
  <rect class="a" width="98.38" height="98.38" />
  <rect class="a" y="102.38" width="98.38" height="98.38" />
  <rect class="a" x="102.38" width="98.38" height="98.38" />
  <rect class="a" y="204.76" width="98.38" height="47.19" />
  <path class="a" d="M102.38,102.4V251.94c54.43-.8,98.38-34,98.38-74.77S156.81,103.19,102.38,102.4Z" />
  <rect class="a" x="508.78" width="98.38" height="98.38" />
  <rect class="a" x="508.78" y="102.38" width="98.38" height="98.38" />
  <rect class="a" x="611.16" width="98.38" height="98.38" />
  <rect class="a" x="508.78" y="204.76" width="98.38" height="47.19" />
  <path class="a" d="M611.16,102.4V251.94c54.43-.8,98.38-34,98.38-74.77S665.59,103.19,611.16,102.4Z" />
  <rect class="a" x="252.83" width="98.38" height="98.38" />
  <rect class="a" x="252.83" y="102.38" width="98.38" height="98.38" />
  <rect class="a" x="252.83" y="204.76" width="98.38" height="47.19" />
  <rect class="a" x="355.21" y="153.57" width="98.38" height="98.38" />
  <rect class="a" x="355.21" y="51.19" width="98.38" height="98.38" />
  <rect class="a" x="355.21" width="98.38" height="47.19" />
</svg>